<svg xmlns="http://www.w3.org/2000/svg" xmlns:xlink="http://www.w3.org/1999/xlink" version="1.1" x="0px" y="0px" width="100px" height="100px" viewBox="0 0 100 100" enable-background="new 0 0 100 100" xml:space="preserve">
<g id="Captions">
	<path d="M53,25.5c0,1.381-1.343,2.5-3,2.5l0,0c-1.657,0-3-1.119-3-2.5v-10c0-1.381,1.343-2.5,3-2.5l0,0c1.657,0,3,1.119,3,2.5V25.5   z"/>
	<path d="M76,28l-2-12l-0.125,0.25c-1.193-5.954-2.99-8.191-2.99-8.191c-5-7-15.055-6-15.055-6L53.457,6.96l-3.649,0.971   l-3.795-0.892l-2.029-4.99c0,0-10.104-0.995-15.104,6.005c0,0-4.052,5.002-4.052,20.002c0,6.257,0.173,10.909,0.305,14.506   c0.023,0.056,0.044,0.121,0.067,0.178c0.158,4.478,0.207,7.364-0.339,9.611c-0.887,3.648-5.697,5.686-3.995,13.986   c0.046,0.068,0.095,0.141,0.142,0.211c0.2,0.785,0.441,1.609,0.77,2.51c4,11,11.235,21,16.236,24c5,3,12.236,2.976,12.236,2.976   s6.844,0.013,11.844-2.987s11.943-12.994,15.943-23.994c0.293-0.806,0.475-1.542,0.654-2.252c0.033-0.104,0.067-0.211,0.101-0.317   c0.026-0.05,0.051-0.1,0.083-0.147c0.021-0.105,0.03-0.198,0.05-0.301C79.575,63.794,80,61.216,80,58C80,51,76,28,76,28z M46,16   c0-2.209,1.791-4,4-4s4,1.791,4,4v9c0,2.209-1.791,4-4,4s-4-1.791-4-4V16z M53,40c0,1.657-1.343,3-3,3s-3-1.343-3-3s1.343-3,3-3   S53,38.343,53,40z M30.894,74.705c-1.813-1.279-5.413-5.049-8.142-9.139c-0.844-4.574,0.568-6.652,2.061-8.846   c0.798-1.174,1.622-2.385,1.989-3.896c0.049-0.199,0.093-0.402,0.133-0.607c1.608,4.428,2.64,7.809,2.949,9.719   C31.198,70.051,31.112,73.375,30.894,74.705z M73,63c-4,12-11.842,19.059-15.921,21.029c-3,2-7.22,1.971-7.22,1.971h-0.002   c0,0-4.22,0.029-7.22-1.971s-4.478-9.579-7.111-20.985c-3-13-7.055-26.993-7.055-26.993s3.973-1.996,3.973-4.996   s-1.014-7.998-0.014-10.998s0.993-4,0.993-6c0-1.049-1.654-2.921-3.225-4.467c4.692-6.464,12.22-5.532,12.22-5.532L45,9v54h10V9   l2.334-4.941c0,0,7.508-0.931,12.2,5.533c-0.048,0.048-0.097,0.098-0.146,0.146C69.951,10.296,70.568,11.274,71,13c1,4,2,14,2,18   c0,0.458,0.069,0.595,0,1c0.078,0.23,0,0.754,0,1C73,37,77,51,73,63z"/>
	<circle cx="50" cy="40" r="2"/>
</g>
<g id="Your_Icon">
</g>
</svg>