<svg xmlns="http://www.w3.org/2000/svg" xmlns:xlink="http://www.w3.org/1999/xlink" version="1.1" id="Capa_1" x="0px" y="0px" width="100px" height="100px" viewBox="0 0 100 100" enable-background="new 0 0 100 100" xml:space="preserve">
<path d="M98.333,64.534c-0.088-5.015-1.644-15.932-2.81-21.703c-1.299-5.771-3.438-11.738-4.864-15.693  c-1.621-3.826-2.334-4.864-3.242-5.966c-2.594-1.946-8.365-3.956-10.765-4.475c-2.4-0.519-5.901,0.389-6.875,0.778  c-0.973,0.389-4.538,3.048-6.678,4.345c-2.142,1.297-8.367,1.945-8.367,1.945h-4.215H50h-0.519h-4.215c0,0-6.226-0.648-8.365-1.945  c-2.14-1.297-5.707-3.956-6.679-4.345c-0.972-0.389-4.475-1.297-6.874-0.778c-2.399,0.519-8.171,2.529-10.765,4.475  c-0.908,1.102-1.621,2.14-3.242,5.966c-1.427,3.956-3.567,9.922-4.864,15.693C3.31,48.603,1.754,59.52,1.667,64.534  s0.518,11.153,1.729,13.659c1.211,2.508,3.221,5.265,6.269,5.265c2.497-0.292,4.474-1.199,7.068-3.469  c2.594-2.271,9.856-9.079,11.413-10.052c1.556-0.974,4.345-3.112,9.208-3.826c4.518-0.662,10.93-0.709,12.392-0.713  c0.069,0,0.163,0,0.253,0s0.184,0,0.253,0c1.462,0.004,7.874,0.051,12.393,0.713c4.862,0.714,7.65,2.854,9.207,3.826  c1.558,0.972,8.819,7.781,11.414,10.052c2.594,2.27,4.571,3.177,7.067,3.469c3.048,0,5.06-2.757,6.271-5.265  C97.814,75.688,98.42,69.549,98.333,64.534z M60.462,31.763c1.481,0,2.681,1.122,2.681,2.507s-1.199,2.507-2.681,2.507  c-1.48,0-2.681-1.122-2.681-2.507S58.981,31.763,60.462,31.763z M39.192,31.763c1.48,0,2.68,1.122,2.68,2.507s-1.2,2.507-2.68,2.507  s-2.68-1.122-2.68-2.507S37.712,31.763,39.192,31.763z M19.862,40.138c-3.845,0-6.962-3.117-6.962-6.962  c0-3.845,3.117-6.962,6.962-6.962c3.845,0,6.962,3.117,6.962,6.962C26.824,37.021,23.707,40.138,19.862,40.138z M34.089,59.605  c-4.729,0-8.562-3.833-8.562-8.562s3.833-8.562,8.562-8.562c4.729,0,8.562,3.833,8.562,8.562S38.818,59.605,34.089,59.605z   M50,39.197c-2.722,0-4.928-2.206-4.928-4.928s2.207-4.928,4.928-4.928s4.928,2.207,4.928,4.928S52.722,39.197,50,39.197z   M64.005,58.006c-3.845,0-6.962-3.117-6.962-6.962s3.117-6.962,6.962-6.962s6.962,3.117,6.962,6.962S67.85,58.006,64.005,58.006z   M71.355,36.777c-1.861,0-3.371-1.51-3.371-3.372s1.51-3.372,3.371-3.372c1.863,0,3.373,1.509,3.373,3.372  S73.219,36.777,71.355,36.777z M79.139,44.559c-1.863,0-3.373-1.51-3.373-3.372s1.51-3.372,3.373-3.372  c1.861,0,3.371,1.51,3.371,3.372S81,44.559,79.139,44.559z M79.139,28.995c-1.863,0-3.373-1.51-3.373-3.372s1.51-3.372,3.373-3.372  c1.861,0,3.371,1.51,3.371,3.372S81,28.995,79.139,28.995z M86.92,36.777c-1.862,0-3.372-1.51-3.372-3.372s1.51-3.372,3.372-3.372  s3.372,1.509,3.372,3.372S88.782,36.777,86.92,36.777z"/>
<g>
	<circle cx="71.355" cy="33.405" r="2.807"/>
</g>
<g>
	<ellipse cx="60.462" cy="34.27" rx="2.334" ry="2.183"/>
</g>
<g>
	<ellipse cx="39.192" cy="34.27" rx="2.334" ry="2.183"/>
</g>
<g>
	<ellipse cx="50" cy="33.947" rx="4.495" ry="4.172"/>
</g>
<g>
	<circle cx="19.862" cy="33.176" r="5.834"/>
</g>
<g>
	<circle cx="64.005" cy="51.044" r="5.834"/>
</g>
<g>
	<circle cx="79.139" cy="25.623" r="2.807"/>
</g>
<g>
	<circle cx="79.139" cy="41.187" r="2.807"/>
</g>
<g>
	<circle cx="86.92" cy="33.405" r="2.807"/>
</g>
<g>
	<path d="M36.512,45.251v-1.508c-0.763-0.253-1.576-0.395-2.423-0.395c-0.814,0-1.598,0.128-2.334,0.363v1.54   c0,1.719-1.394,3.113-3.112,3.113h-1.76c-0.312,0.836-0.49,1.736-0.49,2.68c0,0.752,0.113,1.478,0.313,2.164h1.937   c1.719,0,3.112,1.394,3.112,3.11v2.061c0.737,0.232,1.521,0.362,2.334,0.362c0.847,0,1.66-0.142,2.423-0.396v-2.027   c0-1.717,1.394-3.11,3.113-3.11h1.848c0.201-0.688,0.313-1.412,0.313-2.164c0-0.944-0.178-1.844-0.489-2.68h-1.672   C37.905,48.364,36.512,46.97,36.512,45.251z"/>
	<path d="M34.089,59.116c-0.829,0-1.652-0.128-2.448-0.38l-0.262-0.084v-2.334c0-1.508-1.228-2.735-2.737-2.735h-2.218l-0.079-0.271   c-0.218-0.746-0.329-1.51-0.329-2.27c0-0.951,0.173-1.897,0.513-2.811l0.091-0.244h2.021c1.509,0,2.737-1.228,2.737-2.738v-1.814   l0.261-0.083c1.613-0.512,3.357-0.507,4.989,0.034l0.257,0.085v1.778c0,1.51,1.228,2.738,2.738,2.738h1.933l0.091,0.244   c0.34,0.915,0.513,1.86,0.513,2.811c0,0.762-0.11,1.523-0.329,2.27l-0.079,0.271h-2.128c-1.51,0-2.738,1.228-2.738,2.735v2.298   l-0.256,0.085C35.804,58.977,34.949,59.116,34.089,59.116z M32.129,58.1c1.309,0.362,2.696,0.355,4.007-0.029v-1.75   c0-1.924,1.564-3.486,3.488-3.486h1.562c0.149-0.59,0.225-1.189,0.225-1.789c0-0.777-0.127-1.551-0.379-2.305h-1.407   c-1.923,0-3.488-1.564-3.488-3.488V44.02c-1.318-0.385-2.706-0.391-4.007-0.029v1.261c0,1.923-1.564,3.488-3.487,3.488h-1.495   c-0.252,0.753-0.38,1.528-0.38,2.305c0,0.598,0.076,1.197,0.225,1.789h1.65c1.923,0,3.487,1.563,3.487,3.486L32.129,58.1   L32.129,58.1z"/>
</g>
</svg>